<?xml version="1.0" encoding="UTF-8" standalone="no"?>
<!-- Created with Inkscape (http://www.inkscape.org/) -->
<svg
   xmlns:svg="http://www.w3.org/2000/svg"
   xmlns="http://www.w3.org/2000/svg"
   version="1.0"
   width="690.90002"
   height="82.91375"
   id="svg2648">
  <defs
     id="defs2650">
    <clipPath
       id="clipPath31">
      <path
         d="M 0,773.858 L 552.72,773.858 L 552.72,707.527 L 0,707.527 L 0,773.858 z"
         id="path33" />
    </clipPath>
  </defs>
  <g
     transform="translate(-4.55,-490.9053)"
     id="layer1">
    <g
       transform="matrix(1.25,0,0,-1.25,4.55,1458.2278)"
       id="g27">
      <g
         clip-path="url(#clipPath31)"
         id="g29">
        <path
           d="M 0,707.527 L 552.72,707.527 L 552.72,773.858 L 0,773.858 L 0,707.527 z"
           id="path35"
           style="fill:#fff200;fill-opacity:1;fill-rule:nonzero;stroke:none" />
      </g>
    </g>
    <path
       d="M 390.79309,519.86636 L 401.00134,519.86636 L 401.00134,512.54936 L 390.79309,512.54936 L 390.79309,519.86636 z"
       id="path37"
       style="fill:#231f20;fill-opacity:1;fill-rule:nonzero;stroke:none" />
    <path
       d="M 429.17559,519.86636 L 439.38609,519.86636 L 439.38609,512.54936 L 429.17559,512.54936 L 429.17559,519.86636 z"
       id="path39"
       style="fill:#231f20;fill-opacity:1;fill-rule:nonzero;stroke:none" />
    <g
       transform="matrix(1.25,0,0,-1.25,275.48934,512.12261)"
       id="g41">
      <path
         d="M 0,0 C 1.048,-0.183 1.328,-0.183 2.668,-0.554 C 4.183,-0.975 4.228,-1.005 5.488,-1.675 C 6.17,-2.041 6.606,-2.322 7.252,-2.834 C 7.684,-3.176 7.92,-3.384 8.307,-3.781 C 8.944,-4.44 9.281,-4.852 9.727,-5.651 C 9.992,-6.126 10.111,-6.409 10.301,-6.917 C 10.609,-7.761 10.733,-8.263 10.834,-9.151 C 10.856,-9.355 10.877,-9.673 10.877,-9.673 L -3.586,-9.673 C -3.586,-9.673 -3.607,-9.178 -3.677,-8.872 C -3.78,-8.457 -3.861,-8.213 -4.097,-7.861 C -4.367,-7.464 -4.592,-7.281 -5.002,-7.026 C -5.344,-6.818 -5.573,-6.764 -5.949,-6.638 C -6.651,-6.4 -7.078,-6.354 -7.816,-6.263 C -8.856,-6.135 -9.461,-6.099 -10.501,-6.217 C -10.987,-6.272 -11.106,-6.261 -11.732,-6.435 C -12.238,-6.574 -13.223,-6.957 -13.388,-7.771 C -13.451,-8.096 -13.473,-8.318 -13.334,-8.617 C -13.198,-8.917 -13.028,-9.065 -12.733,-9.207 C -12.091,-9.513 -12.035,-9.557 -11.552,-9.671 C -9.398,-10.179 -8.764,-10.206 -6.979,-10.533 C -3.67,-11.138 -1.789,-11.391 1.512,-12.008 C 2.583,-12.208 3.199,-12.277 4.261,-12.533 C 5.024,-12.716 5.463,-12.804 6.197,-13.073 C 6.946,-13.347 7.378,-13.496 8.048,-13.925 C 8.653,-14.314 8.96,-14.59 9.461,-15.105 C 9.941,-15.599 10.177,-15.914 10.561,-16.49 C 11.144,-17.372 11.435,-17.916 11.741,-18.926 C 11.956,-19.638 12.013,-20.064 12.083,-20.804 C 12.146,-21.44 12.188,-21.806 12.121,-22.438 C 12.091,-22.797 12.044,-22.996 11.966,-23.347 C 11.819,-24.035 11.714,-24.428 11.428,-25.073 C 11.239,-25.495 11.11,-25.724 10.863,-26.119 C 10.519,-26.675 10.287,-26.97 9.853,-27.462 C 9.394,-27.984 9.115,-28.266 8.572,-28.7 C 8.023,-29.141 7.677,-29.348 7.056,-29.693 C 6.253,-30.141 5.762,-30.326 4.898,-30.644 C 3.803,-31.041 3.157,-31.192 2.021,-31.438 C 0.724,-31.718 -0.025,-31.804 -1.346,-31.939 C -2.434,-32.052 -3.051,-32.071 -4.142,-32.115 C -5.967,-32.189 -7,-32.196 -8.822,-32.12 C -11.05,-32.029 -12.323,-31.985 -14.521,-31.597 C -16.119,-31.315 -17.041,-31.163 -18.576,-30.623 C -19.618,-30.261 -20.219,-30.052 -21.179,-29.508 C -22.223,-28.918 -22.777,-28.505 -23.657,-27.689 C -24.163,-27.218 -24.458,-26.953 -24.872,-26.401 C -25.391,-25.71 -25.623,-25.265 -25.938,-24.465 C -26.122,-24.005 -26.217,-23.738 -26.321,-23.256 C -26.446,-22.693 -26.48,-21.786 -26.48,-21.786 L -11.489,-21.786 C -11.489,-21.786 -11.531,-22.125 -11.081,-22.751 C -10.863,-23.057 -10.712,-23.215 -10.427,-23.467 C -10.087,-23.771 -9.862,-23.913 -9.457,-24.129 C -9.007,-24.367 -8.73,-24.46 -8.24,-24.594 C -7.358,-24.834 -6.817,-24.84 -5.902,-24.815 C -5.148,-24.794 -4.707,-24.766 -3.983,-24.565 C -3.245,-24.361 -2.88,-24.261 -2.191,-23.78 C -1.87,-23.553 -1.708,-23.326 -1.586,-22.945 C -1.445,-22.503 -1.445,-22.173 -1.649,-21.76 C -1.832,-21.391 -2.191,-21.143 -2.426,-21.041 C -3.042,-20.777 -3.35,-20.772 -4.613,-20.531 C -8.181,-19.853 -9.144,-19.714 -12.035,-19.155 C -13.68,-18.837 -14.2,-18.777 -16.247,-18.32 C -18.018,-17.923 -18.801,-17.766 -20.675,-16.889 C -21.551,-16.478 -22.032,-16.186 -22.768,-15.555 C -23.558,-14.876 -23.96,-14.412 -24.507,-13.523 C -25.211,-12.38 -25.472,-11.616 -25.693,-10.29 C -25.834,-9.432 -25.889,-8.745 -25.794,-8.061 C -25.601,-6.683 -25.474,-6.103 -24.894,-5.006 C -24.642,-4.526 -24.539,-4.294 -24.142,-3.834 C -23.222,-2.781 -22.855,-2.529 -21.881,-1.902 C -21.308,-1.533 -20.968,-1.354 -20.349,-1.076 C -19.55,-0.719 -19.343,-0.685 -18.225,-0.36 C -17.374,-0.112 -16.654,0.025 -15.638,0.195 C -14.503,0.383 -13.855,0.436 -12.706,0.533 C -10.93,0.679 -9.918,0.691 -8.136,0.677 C -6.48,0.664 -5.544,0.631 -3.892,0.489 C -2.371,0.357 -1.508,0.26 0,0"
         id="path43"
         style="fill:#231f20;fill-opacity:1;fill-rule:nonzero;stroke:none" />
    </g>
    <g
       transform="matrix(1.25,0,0,-1.25,163.02309,523.82511)"
       id="g45">
      <path
         d="M 0,0 L -22.394,0 L -24.165,-2.074 L 0,-2.043 L 0,-22.02 L -30.155,-22.02 L -37.237,-13.138 L -11.263,-13.138 L -11.263,-11.029 L -38.938,-11.029 L -42.376,-6.773 L -30.089,8.951 L 0,8.951 L 0,0"
         id="path47"
         style="fill:#ed1c24;fill-opacity:1;fill-rule:nonzero;stroke:none" />
    </g>
    <g
       transform="matrix(1.25,0,0,-1.25,210.16934,523.82511)"
       id="g49">
      <path
         d="M 0,0 L -24.203,0 L -24.203,-2.074 L 0.034,-2.074 L 0.034,-22.02 L -35.501,-22.02 L -35.501,-13.138 L -11.335,-13.138 L -11.335,-11.029 L -35.501,-11.029 L -35.501,8.951 L 0,8.951 L 0,0"
         id="path51"
         style="fill:#ed1c24;fill-opacity:1;fill-rule:nonzero;stroke:none" />
    </g>
    <path
       d="M 212.91934,551.35011 L 228.36809,551.35011 L 228.36809,512.63636 L 212.91934,512.63636 L 212.91934,551.35011 z"
       id="path53"
       style="fill:#ed1c24;fill-opacity:1;fill-rule:nonzero;stroke:none" />
    <g
       transform="matrix(1.25,0,0,-1.25,357.13559,527.01636)"
       id="g55">
      <path
         d="M 0,0 L 13.142,0 L 13.142,11.573 L 24.986,11.573 L 24.986,-19.468 L 13.142,-19.468 L 13.142,-7.488 L 0,-7.488 L 0,-19.468 L -11.844,-19.468 L -11.844,11.573 L 0,11.573 L 0,0"
         id="path57"
         style="fill:#231f20;fill-opacity:1;fill-rule:nonzero;stroke:none" />
    </g>
    <g
       transform="matrix(1.25,0,0,-1.25,480.48434,522.49886)"
       id="g59">
      <path
         d="M 0,0 L -19.062,0 L -19.062,-3.825 L -2.246,-3.825 L -2.246,-11.115 L -19.062,-11.115 L -19.062,-23.082 L -31.043,-23.082 L -31.043,7.959 L 0,7.959 L 0,0"
         id="path61"
         style="fill:#231f20;fill-opacity:1;fill-rule:nonzero;stroke:none" />
    </g>
    <g
       transform="matrix(1.25,0,0,-1.25,525.16684,522.50261)"
       id="g63">
      <path
         d="M 0,0 L -22.57,0 L -22.57,-3.813 L -4.702,-3.813 L -4.702,-11.097 L -22.57,-11.097 L -22.57,-15.079 L 0.646,-15.079 L 0.646,-23.059 L -34.452,-23.059 L -34.452,7.963 L 0,7.963 L 0,0"
         id="path65"
         style="fill:#231f20;fill-opacity:1;fill-rule:nonzero;stroke:none" />
    </g>
    <g
       transform="matrix(1.25,0,0,-1.25,410.02809,538.54511)"
       id="g67">
      <path
         d="M 0,0 L 3.811,9.903 L 7.621,0 L 0,0 z M 11.777,20.797 L -3.748,20.797 L -16.137,-10.245 L -3.748,-10.245 L -2.623,-7.249 L 10.107,-7.249 L 11.365,-10.225 L 24.233,-10.225 L 11.777,20.797"
         id="path69"
         style="fill:#231f20;fill-opacity:1;fill-rule:nonzero;stroke:none" />
    </g>
    <g
       transform="matrix(1.25,0,0,-1.25,322.39684,511.48386)"
       id="g71">
      <path
         d="M 0,0 C 1.127,-0.148 1.764,-0.26 2.867,-0.517 C 3.985,-0.773 4.622,-0.928 5.695,-1.325 C 7.142,-1.86 7.951,-2.197 9.245,-3.073 C 10.454,-3.887 10.793,-4.243 11.48,-5.015 C 12.184,-5.806 12.445,-6.174 12.933,-7 C 13.792,-8.45 14.143,-9.309 14.456,-11.039 C 14.585,-11.746 14.6,-12.872 14.6,-12.872 L 1.849,-12.872 C 1.849,-12.872 1.831,-12.385 1.778,-12.081 C 1.69,-11.626 1.598,-11.375 1.409,-10.953 C 1.17,-10.422 0.974,-10.148 0.621,-9.685 C 0.311,-9.285 0.126,-9.06 -0.254,-8.726 C -0.844,-8.211 -1.246,-7.982 -1.973,-7.685 C -2.574,-7.441 -2.939,-7.365 -3.58,-7.262 C -4.205,-7.161 -4.565,-7.138 -5.193,-7.154 C -5.85,-7.17 -6.226,-7.205 -6.86,-7.358 C -7.567,-7.529 -7.97,-7.659 -8.597,-8.023 C -9.236,-8.39 -9.571,-8.668 -10.058,-9.216 C -10.422,-9.617 -10.582,-9.881 -10.861,-10.345 C -11.237,-10.985 -11.412,-11.375 -11.641,-12.081 C -11.855,-12.725 -11.92,-13.11 -12.017,-13.781 C -12.123,-14.502 -12.145,-14.915 -12.148,-15.641 C -12.15,-16.652 -12.091,-17.362 -11.925,-18.223 C -11.725,-19.238 -11.419,-20.169 -10.91,-21.125 C -10.652,-21.61 -10.213,-22.277 -9.817,-22.732 C -9.225,-23.409 -7.637,-24.535 -5.945,-24.819 C -5.395,-24.912 -5.071,-24.91 -4.507,-24.905 C -3.812,-24.899 -3.415,-24.88 -2.736,-24.736 C -2.25,-24.631 -1.969,-24.56 -1.512,-24.362 C -1.051,-24.163 -0.806,-24.013 -0.398,-23.727 C 0.097,-23.37 0.365,-23.14 0.758,-22.67 C 1.048,-22.326 1.192,-22.112 1.406,-21.718 C 1.638,-21.289 1.75,-21.031 1.879,-20.559 C 2.021,-20.067 2.084,-19.267 2.084,-19.267 L 14.881,-19.267 C 14.881,-19.267 14.906,-19.844 14.758,-20.603 C 14.56,-21.617 14.393,-22.182 13.914,-23.251 C 13.59,-23.971 13.327,-24.34 12.884,-24.987 C 12.409,-25.676 12.11,-26.045 11.545,-26.663 C 11.021,-27.23 10.705,-27.529 10.121,-28.032 C 8.725,-29.234 7.828,-29.816 6.172,-30.625 C 5.402,-31.001 4.95,-31.18 4.144,-31.47 C 2.108,-32.2 0.875,-32.396 -1.271,-32.651 C -2.909,-32.852 -3.847,-32.876 -5.495,-32.852 C -7.018,-32.829 -7.915,-32.766 -9.387,-32.57 C -10.854,-32.372 -12.053,-32.145 -13.669,-31.583 C -15.439,-30.971 -16.409,-30.484 -17.987,-29.496 C -19.354,-28.642 -20.774,-27.271 -21.256,-26.652 C -22.064,-25.603 -22.558,-24.862 -23.116,-23.662 C -23.85,-22.085 -24.217,-20.638 -24.498,-18.619 C -24.642,-17.582 -24.683,-16.989 -24.694,-15.942 C -24.705,-14.998 -24.691,-14.46 -24.59,-13.521 C -24.491,-12.677 -24.406,-12.204 -24.217,-11.375 C -24.044,-10.629 -23.942,-10.208 -23.679,-9.487 C -23.333,-8.531 -23.092,-7.995 -22.558,-7.123 C -22.138,-6.437 -21.872,-6.064 -21.341,-5.458 C -20.725,-4.755 -20.327,-4.396 -19.593,-3.823 C -18.833,-3.233 -18.364,-2.958 -17.523,-2.492 C -16.801,-2.09 -16.38,-1.883 -15.617,-1.57 C -14.864,-1.259 -14.425,-1.123 -13.646,-0.895 C -12.713,-0.62 -12.179,-0.499 -11.227,-0.315 C -10.058,-0.086 -9.387,-0.002 -8.203,0.112 C -7.13,0.214 -6.52,0.241 -5.44,0.264 C -4.81,0.278 -4.459,0.278 -3.825,0.264 C -2.331,0.234 -1.481,0.195 0,0"
         id="path73"
         style="fill:#231f20;fill-opacity:1;fill-rule:nonzero;stroke:none" />
    </g>
    <g
       transform="matrix(1.25,0,0,-1.25,559.54059,526.51011)"
       id="g75">
      <path
         d="M 0,0 C -0.106,-0.338 -0.207,-0.527 -0.45,-0.789 C -0.657,-1.014 -0.808,-1.12 -1.087,-1.255 C -1.472,-1.448 -1.74,-1.492 -2.173,-1.492 L -13.68,-1.498 L -13.68,3.169 L -2.173,3.168 C -1.74,3.164 -1.472,3.118 -1.087,2.927 C -0.808,2.79 -0.657,2.688 -0.45,2.461 C -0.207,2.201 -0.106,2.009 0,1.673 C 0.106,1.359 0.106,1.166 0.106,0.837 C 0.106,0.51 0.106,0.313 0,0 z M 10.8,-18.032 C 10.69,-17.613 10.627,-16.942 10.627,-16.942 L 10.526,-11.327 C 10.494,-10.295 10.575,-10.259 10.46,-9.591 C 10.364,-9.062 10.291,-8.757 10.077,-8.263 C 9.801,-7.624 9.587,-7.267 9.103,-6.769 C 8.498,-6.152 8.019,-5.92 7.222,-5.599 C 6.872,-5.46 6.307,-5.309 6.307,-5.309 C 6.307,-5.309 6.939,-5.089 7.303,-4.867 C 8.683,-4.022 9.337,-3.547 10.181,-2.301 C 10.635,-1.63 10.845,-1.206 11.106,-0.436 C 11.331,0.234 11.387,0.635 11.479,1.334 C 11.574,2.074 11.605,2.505 11.56,3.252 C 11.475,4.641 11.31,5.476 10.663,6.711 C 10.228,7.541 9.9,7.982 9.239,8.647 C 8.016,9.888 6.554,10.545 5.355,10.86 C 3.98,11.218 3.028,11.169 2.394,11.169 L -25.488,11.169 L -25.488,-19.853 L -13.711,-19.853 L -13.711,-8.947 L -3.839,-8.947 C -3.337,-8.947 -3.035,-9.026 -2.59,-9.264 C -2.342,-9.399 -2.212,-9.501 -2,-9.694 C -1.723,-9.949 -1.571,-10.114 -1.388,-10.443 C -1.146,-10.87 -1.062,-11.271 -1.037,-11.652 C -0.851,-14.632 -0.945,-15.242 -0.945,-15.242 C -0.945,-15.242 -1.037,-16.627 -0.671,-17.692 C -0.513,-18.149 -0.401,-18.617 -0.084,-19.139 C 0.099,-19.436 0.45,-19.853 0.45,-19.853 L 11.616,-19.853 C 11.616,-19.853 10.989,-18.786 10.8,-18.032"
         id="path77"
         style="fill:#231f20;fill-opacity:1;fill-rule:nonzero;stroke:none" />
    </g>
  </g>
</svg>
